<svg width="20" height="13" viewBox="0 0 20 13" fill="none" xmlns="http://www.w3.org/2000/svg">
<path fill-rule="evenodd" clip-rule="evenodd" d="M19.7477 6.6029C19.7477 6.41964 19.6761 6.24389 19.5487 6.1143C19.4213 5.98472 19.2485 5.91192 19.0683 5.91192L3.04342 5.91192L7.3197 1.56425C7.38287 1.50001 7.43298 1.42374 7.46717 1.3398C7.50136 1.25586 7.51895 1.16589 7.51895 1.07503C7.51895 0.984179 7.50136 0.894213 7.46717 0.810273C7.43298 0.726333 7.38287 0.650063 7.3197 0.585818C7.25653 0.521574 7.18154 0.470612 7.099 0.435843C7.01647 0.401074 6.92801 0.383179 6.83867 0.383179C6.74933 0.383179 6.66087 0.401074 6.57834 0.435843C6.4958 0.470612 6.42081 0.521574 6.35764 0.585818L0.922262 6.11369C0.85899 6.17787 0.80879 6.25412 0.774538 6.33807C0.740287 6.42202 0.722656 6.51201 0.722656 6.6029C0.722656 6.69379 0.740287 6.78378 0.774538 6.86773C0.80879 6.95168 0.85899 7.02793 0.922262 7.09212L6.35764 12.62C6.42081 12.6842 6.4958 12.7352 6.57834 12.77C6.66087 12.8047 6.74933 12.8226 6.83867 12.8226C6.92801 12.8226 7.01647 12.8047 7.099 12.77C7.18154 12.7352 7.25653 12.6842 7.3197 12.62C7.38287 12.5557 7.43298 12.4795 7.46717 12.3955C7.50136 12.3116 7.51895 12.2216 7.51895 12.1308C7.51895 12.0399 7.50136 11.9499 7.46717 11.866C7.43298 11.7821 7.38287 11.7058 7.3197 11.6416L3.04342 7.29388L19.0683 7.29388C19.2485 7.29388 19.4213 7.22109 19.5487 7.0915C19.6761 6.96192 19.7477 6.78616 19.7477 6.6029Z" fill="white"/>
</svg>
